<?xml version="1.0" encoding="UTF-8" standalone="no"?>
<!DOCTYPE svg PUBLIC "-//W3C//DTD SVG 1.1//EN" "http://www.w3.org/Graphics/SVG/1.1/DTD/svg11.dtd">
<svg width="100%" height="100%" viewBox="0 0 40 40" version="1.1" xmlns="http://www.w3.org/2000/svg" xmlns:xlink="http://www.w3.org/1999/xlink" xml:space="preserve" xmlns:serif="http://www.serif.com/" style="fill-rule: evenodd; stroke-linecap: round; stroke-linejoin: round; clip-rule: evenodd; stroke-miterlimit: 1.5">
    <g transform="matrix(1.1,0,0,1.1,-1.1,-1.1)">
        <circle cx="20" cy="20" r="18.9" style="fill: white"/>
    </g>
    <g transform="matrix(1.1,0,0,1.1,-1.1,-1)">
        <path d="M 13.3 4.1 C 13.3 4.1 10.3 4.1 9.5 9.5 C 9.1 13.5 12.6 15.5 14.1 15.5 C 15.6 15.5 17.6 14.2 17.5 9.8 C 17.3 5.4 15 4.2 13.3 4.1"/>
    </g>
    <path d="M 3.1 15.6 C 2.6 16 0.6 18 3.5 22.9 C 6.4 27.8 8.6 23.9 8.9 23.5 C 9.2 23 11.4 20.3 8.7 16.9 C 5.9 13.5 3.1 15.6 3.1 15.6 Z"/>
    <g transform="matrix(1,0,0,1,-0.2,0.3)">
        <path d="M 24 4.1 C 22 4.3 20.5 5.3 20.9 9.8 C 21.4 14.3 24.4 15.6 25.4 15.5 C 26.4 15.4 28.8 12.5 28.4 9.8 C 28 7.1 26.8 4.3 24 4.1 Z"/>
    </g>
    <path d="M 32.1 11.3 C 32.1 11.3 29.2 13.2 30.9 16.6 C 32.5 20 34.7 19.3 36 18.6 C 37.3 17.9 38 14.8 35.9 12.7 C 33.8 10.6 32.1 11.3 32.1 11.3 Z"/>
    <path d="M 19.2 17.1 C 19.2 17.1 12.7 19.3 12.8 25.2 C 12.9 28 10.6 28.5 11.1 32.6 C 11.7 34.3 12.6 36.9 15.9 36.9 C 19.1 36.8 19.6 34.4 23.4 33 C 27.2 31.6 31 33.8 33.8 31.2 C 36.6 28.6 35.2 24.5 31.9 22.7 C 28.6 21 24.8 16.3 19.2 17.1 Z" style="stroke: black; stroke-width: 1px"/>
</svg>