<svg data-v-423bf9ae="" xmlns="http://www.w3.org/2000/svg" viewBox="0 0 191.55856603571524 60" class="font"><!----><!----><!----><g data-v-423bf9ae="" id="7d949702-56e5-441d-9bb6-4de32300eddb" fill="black" transform="matrix(5.808325309113267,0,0,5.808325309113267,5.057019478726943e-7,-17.2507265726625)"><path d="M4.79 13.29L3.46 13.29L3.46 10.23C3.46 9.32 3.02 8.88 2.14 8.88L1.32 8.88L1.32 13.29L0 13.29L0 2.97L2.14 2.97C3.92 2.97 4.76 3.99 4.76 5.91C4.76 6.86 4.55 7.59 4.14 8.08C4.13 8.09 4.10 8.12 4.09 8.15C4.06 8.18 4.03 8.20 4.00 8.22C4.51 8.71 4.79 9.38 4.79 10.23ZM1.32 7.55L2.14 7.55C2.49 7.55 2.74 7.50 2.88 7.42C3.01 7.34 3.09 7.27 3.14 7.22C3.35 6.96 3.44 6.52 3.44 5.91C3.44 5.22 3.33 4.82 3.12 4.58C2.90 4.35 2.58 4.30 2.14 4.30L1.32 4.30ZM5.84 5.91C5.84 5.00 6.03 4.28 6.43 3.78C6.58 3.60 6.79 3.40 7.10 3.23C7.41 3.08 7.78 2.97 8.29 2.97C9.30 2.97 9.86 3.40 10.15 3.78C10.54 4.28 10.74 5.00 10.74 5.91L10.74 10.35C10.74 11.26 10.54 11.97 10.15 12.47C9.86 12.85 9.30 13.29 8.29 13.29C7.29 13.29 6.72 12.85 6.43 12.47C6.03 11.97 5.84 11.26 5.84 10.35ZM7.15 10.35C7.15 11.17 7.34 11.56 7.57 11.76C7.81 11.96 8.08 11.97 8.29 11.97C8.47 11.97 8.76 11.96 9.00 11.76C9.24 11.56 9.42 11.17 9.42 10.35L9.42 5.91C9.42 5.11 9.24 4.69 9.00 4.49C8.76 4.30 8.47 4.30 8.29 4.30C8.08 4.30 7.81 4.30 7.57 4.49C7.34 4.69 7.15 5.11 7.15 5.91ZM11.51 2.97L17.35 2.97L17.35 4.30L15.09 4.30L15.09 13.29L13.76 13.29L13.76 4.30L11.51 4.30ZM22.75 13.29L21.42 13.29L21.42 10.23C21.42 9.32 20.99 8.88 20.10 8.88L19.28 8.88L19.28 13.29L17.96 13.29L17.96 2.97L20.10 2.97C21.88 2.97 22.72 3.99 22.72 5.91C22.72 6.86 22.51 7.59 22.11 8.08C22.09 8.09 22.06 8.12 22.05 8.15C22.02 8.18 21.99 8.20 21.97 8.22C22.47 8.71 22.75 9.38 22.75 10.23ZM19.28 7.55L20.10 7.55C20.45 7.55 20.71 7.50 20.85 7.42C20.97 7.34 21.06 7.27 21.10 7.22C21.31 6.96 21.41 6.52 21.41 5.91C21.41 5.22 21.29 4.82 21.08 4.58C20.86 4.35 20.54 4.30 20.10 4.30L19.28 4.30ZM25.54 13.30L24.22 13.30L24.22 2.98L25.54 2.98ZM31.51 2.98L32.98 2.98L30.53 8.13L32.96 13.30L31.50 13.30L29.81 9.69L28.10 13.30L26.63 13.30L29.06 8.13L26.67 2.98L28.14 2.98L29.81 6.58Z"></path></g><!----><!----></svg>